<svg
    xmlns="http://www.w3.org/2000/svg"
    viewBox="0 0 24 24"
    width="24"
    height="24"
    class="fill-current text-gray-900 dark:text-gray-100"
>
    <path
        d="M12 2.163c3.204 0 3.584.012 4.85.07 1.366.062 2.633.331 3.608 1.306.975.975 1.244 2.242 1.306 3.608.058 1.266.07 1.646.07 4.85s-.012 3.584-.07 4.85c-.062 1.366-.331 2.633-1.306 3.608-.975.975-2.242 1.244-3.608 1.306-1.266.058-1.646.07-4.85.07s-3.584-.012-4.85-.07c-1.366-.062-2.633-.331-3.608-1.306-.975-.975-1.244-2.242-1.306-3.608-.058-1.266-.07-1.646-.07-4.85s.012-3.584.07-4.85c.062-1.366.331-2.633 1.306-3.608.975-.975 2.242-1.244 3.608-1.306 1.266-.058 1.646-.07 4.85-.07zm0-2.163c-3.259 0-3.667.013-4.947.072-1.598.073-3.005.348-4.116 1.459-1.111 1.111-1.386 2.518-1.459 4.116-.059 1.28-.072 1.688-.072 4.947s.013 3.667.072 4.947c.073 1.598.348 3.005 1.459 4.116 1.111 1.111 2.518 1.386 4.116 1.459 1.28.059 1.688.072 4.947.072s3.667-.013 4.947-.072c1.598-.073 3.005-.348 4.116-1.459 1.111-1.111 1.386-2.518 1.459-4.116.059-1.28.072-1.688.072-4.947s-.013-3.667-.072-4.947c-.073-1.598-.348-3.005-1.459-4.116-1.111-1.111-2.518-1.386-4.116-1.459-1.28-.059-1.688-.072-4.947-.072zm0 5.838c-3.403 0-6.162 2.759-6.162 6.162s2.759 6.162 6.162 6.162 6.162-2.759 6.162-6.162-2.759-6.162-6.162-6.162zm0 10.325c-2.292 0-4.162-1.87-4.162-4.162s1.87-4.162 4.162-4.162 4.162 1.87 4.162 4.162-1.87 4.162-4.162 4.162zm6.406-11.845c0 .796-.646 1.442-1.442 1.442s-1.442-.646-1.442-1.442.646-1.442 1.442-1.442 1.442.646 1.442 1.442z"
    />
</svg>